<svg width="180" height="156" viewBox="0 0 180 156" fill="none" xmlns="http://www.w3.org/2000/svg">
<path d="M177.2 155.2H22.9001C10.8001 155.2 0.800049 145.3 0.800049 133.1V22.3002C0.800049 10.2002 10.7001 0.200195 22.9001 0.200195H135.8C147.9 0.200195 157.9 10.1002 157.9 22.3002V130.1C157.9 131.1 158.3 132.1 159.1 132.8L178.8 151.4C180.2 152.8 179.2 155.2 177.2 155.2Z" fill="#1E88E5"/>
<path d="M79.6001 42.8998C86.9455 42.8998 92.9001 36.9452 92.9001 29.5998C92.9001 22.2544 86.9455 16.2998 79.6001 16.2998C72.2547 16.2998 66.3 22.2544 66.3 29.5998C66.3 36.9452 72.2547 42.8998 79.6001 42.8998Z" fill="white"/>
<path d="M125.4 136.6C124.6 138.2 123 139.2 121.2 139.2H110.7C109.1 139.2 107.7 138.4 106.8 137.1L82.8 101.5C82.1 100.5 81 99.7997 79.7 99.7997C78.4 99.7997 77.3 100.4 76.6 101.5L52.6 137.1C51.7001 138.4 50.2 139.2 48.7 139.2H38.1C36.3001 139.2 34.7 138.2 33.9 136.6C33.1 135 33.2 133.2 34.2 131.7L66.6 85.7997C67.5 84.4997 67.5 82.7997 66.6 81.4997L34.5 35.0997C33.5 33.5997 33.4 31.7997 34.2 30.1997C35 28.5997 36.6 27.6997 38.4 27.6997H49C50.6 27.6997 52.1 28.4997 53 29.7997L76.6 65.5997C77.3 66.6997 78.5 67.2997 79.7 67.2997C80.9 67.2997 82.1 66.6997 82.8 65.5997L106.4 29.7997C107.3 28.4997 108.8 27.6997 110.4 27.6997H121C122.8 27.6997 124.4 28.5997 125.2 30.2997C126 31.8997 125.9 33.6997 124.9 35.1997L92.7 81.5997C91.8 82.8997 91.8 84.5997 92.7 85.8997L125.2 131.8C126.1 133.1 126.3 135 125.4 136.6Z" fill="white"/>
</svg>
